<?xml version="1.0" encoding="UTF-8" standalone="no"?><!DOCTYPE svg PUBLIC "-//W3C//DTD SVG 1.1//EN" "http://www.w3.org/Graphics/SVG/1.1/DTD/svg11.dtd"><svg width="100%" height="100%" viewBox="0 0 552 202" version="1.1" xmlns="http://www.w3.org/2000/svg" xmlns:xlink="http://www.w3.org/1999/xlink" xml:space="preserve" xmlns:serif="http://www.serif.com/" style="fill-rule:evenodd;clip-rule:evenodd;stroke-linejoin:round;stroke-miterlimit:2;"><g id="layer1"><path id="path4529" d="M203.282,178.533c-5.656,-3.771 -10.283,-6.94 -10.283,-7.042c-0,-0.102 1.407,-1.146 3.126,-2.321c3.614,-2.469 7.298,-5.299 10.067,-7.733c7.117,-6.257 14.346,-13.686 16.585,-17.045c0.734,-1.102 1.422,-2.1 1.528,-2.218c0.106,-0.118 0.701,0.041 1.323,0.354c1.401,0.705 5.398,3.094 5.398,3.227c0,0.054 -0.402,1.096 -0.894,2.316c-0.492,1.22 -1.431,4.224 -2.087,6.676c-2.315,8.653 -5.058,16.292 -8.678,24.168c-1.124,2.446 -2.233,4.92 -2.464,5.497l-0.42,1.049l-2.918,-0.071l-10.283,-6.857Zm-123.555,5.97l-1.13,-0.109l0.15,-0.954c0.582,-3.69 0.703,-8.291 0.633,-24.169l-0.075,-17.266l-2.717,1.969c-15.802,11.458 -32.995,20.185 -54.195,27.508c-2.561,0.885 -6.212,2.245 -8.114,3.022c-1.901,0.777 -3.484,1.378 -3.517,1.335c-0.032,-0.043 -0.808,-1.477 -1.723,-3.186l-1.664,-3.108l2.807,-0.841c3.199,-0.958 6.815,-2.6 10.927,-4.962c6.682,-3.837 15.917,-10.389 22.108,-15.685c3.751,-3.208 13.223,-12.528 16.539,-16.274c3.267,-3.69 6.226,-7.337 6.226,-7.672c0,-0.178 -7.658,-0.236 -23.67,-0.176c-13.019,0.048 -23.67,0.062 -23.67,0.032c-0,-0.03 0.243,-0.67 0.539,-1.423c0.804,-2.038 2.077,-7.549 4.236,-18.342c2.505,-12.523 2.985,-15.554 2.985,-18.854l0,-2.716l4.851,0.177c2.668,0.097 14.6,0.214 26.516,0.259l21.665,0.081l-0,-13.387l-0,-13.387l-27.227,0.003c-24.259,0.003 -32.771,0.16 -35.958,0.664l-0.97,0.153l-0,-4.318c-0,-4.013 0.032,-4.306 0.452,-4.131c0.249,0.103 7.321,0.233 15.716,0.288c8.394,0.055 17.454,0.137 20.133,0.183l4.871,0.082l-0.177,-1.572c-0.261,-2.327 -1.441,-6.708 -3.33,-12.368c-2.594,-7.775 -4.223,-11.665 -5.918,-14.138l-0.778,-1.135l0.619,-0.48c1.046,-0.811 6.358,-4.349 6.764,-4.504c0.254,-0.098 0.821,0.412 1.696,1.525c0.951,1.21 3.121,3.098 7.86,6.836c3.6,2.841 8.237,6.548 10.303,8.238c2.067,1.69 4.597,3.71 5.623,4.49c1.471,1.117 1.798,1.483 1.546,1.73c-0.176,0.172 -4.103,2.656 -8.727,5.52c-4.624,2.864 -8.518,5.315 -8.653,5.448c-0.152,0.15 7.586,0.242 20.32,0.242l20.566,-0l0.551,-1.488c0.303,-0.818 1.252,-3.38 2.109,-5.694c2.72,-7.349 5.428,-16.664 6.748,-23.214c0.287,-1.423 0.582,-2.846 0.656,-3.162c0.133,-0.568 0.189,-0.556 4.464,0.937c4.408,1.539 19.4,7.029 20.978,7.682l0.868,0.359l-1.29,1.49c-0.71,0.819 -4.651,4.713 -8.758,8.652c-6.395,6.135 -9.858,9.225 -15.232,13.595l-1.031,0.839l45.704,-0.126l-0.217,2.329c-0.271,2.919 -0.286,33.585 -0.017,36.734l0.198,2.328l-55.368,-0.178l-0,26.677l11.447,-0.12c6.296,-0.066 20.76,-0.179 32.142,-0.25c11.382,-0.071 20.97,-0.205 21.306,-0.297l0.611,-0.168l-0.168,4.112c-1.267,30.818 -3.303,42.091 -8.546,47.338c-2.742,2.742 -5.943,3.634 -12.162,3.388c-5.568,-0.221 -11.722,-1.312 -20.055,-3.555c-2.063,-0.555 -5.432,-1.303 -7.488,-1.661c-4.651,-0.811 -4.583,-0.788 -4.791,-1.618c-0.408,-1.628 -1.426,-6.888 -1.348,-6.966c0.048,-0.048 0.95,0.036 2.006,0.184c1.057,0.149 5.137,0.339 9.068,0.422c6.78,0.143 7.239,0.122 8.953,-0.398c3.007,-0.914 4.383,-2.802 5.652,-7.758c1.086,-4.236 2.186,-13.161 2.557,-20.737c0.087,-1.778 0.217,-3.612 0.289,-4.074l0.13,-0.841l-39.603,0l0.003,26.581c0.002,21.638 0.073,27.25 0.385,30.183c0.21,1.982 0.316,3.67 0.234,3.751c-0.17,0.171 -23.728,0.26 -25.422,0.095l-0.001,0.001Zm-0.293,-67.853l-0,-26.387l-27.877,0l-2.507,12.741c-1.379,7.007 -2.565,12.944 -2.635,13.193c-0.121,0.428 0.784,0.453 16.445,0.453l16.574,-0Zm54.842,-33.63l0,-26.645l-29.749,-0l-0,26.645l29.749,-0Zm203.974,100.824c-0.063,-0.177 -0.655,-2.011 -1.314,-4.074c-1.481,-4.638 -4.453,-12.332 -7.595,-19.66c-3.093,-7.216 -4.921,-10.923 -6.23,-12.638c-1.031,-1.35 -1.046,-1.398 -0.589,-1.905c0.779,-0.866 4.406,-3.824 4.688,-3.824c0.144,-0 0.942,0.563 1.773,1.253c0.83,0.689 3.314,2.455 5.519,3.924c7.159,4.769 15.151,10.642 19.143,14.071c0.925,0.794 3.17,2.57 4.988,3.946c1.819,1.377 3.216,2.585 3.105,2.684c-0.191,0.171 -20.493,14.761 -22.231,15.976c-0.943,0.659 -1.098,0.69 -1.257,0.247l0,0Zm121.07,-0.092c-3.544,-0.633 -8.015,-1.799 -15.262,-3.981c-3.842,-1.157 -8.538,-2.498 -10.436,-2.982c-1.897,-0.483 -3.647,-0.941 -3.886,-1.017c-0.335,-0.107 -0.579,-0.932 -1.05,-3.557c-0.338,-1.879 -0.674,-3.644 -0.746,-3.921c-0.118,-0.451 -0.037,-0.486 0.75,-0.326c2.568,0.52 13.974,1.454 17.751,1.454c3.717,0 5.212,-0.961 5.536,-3.56c0.102,-0.816 0.196,-10.535 0.208,-21.597l0.022,-20.113l-26.968,0.002c-24.029,0.003 -32.517,0.162 -35.699,0.665l-0.971,0.153l0,-8.569l0.841,0.187c1.103,0.247 144.819,0.245 146.419,-0.001l1.229,-0.19l-0,8.551l-0.841,-0.145c-2.788,-0.479 -11.391,-0.647 -33.343,-0.651l-24.741,-0.003l-0.123,24.641c-0.108,21.831 -0.17,24.812 -0.547,26.148c-1.372,4.866 -4.257,7.776 -8.759,8.838c-2.038,0.48 -6.617,0.467 -9.383,-0.026l-0.001,-0Zm-209.547,-8.574c-0.011,-10.343 -0.564,-18.612 -1.724,-25.766c-0.455,-2.811 -0.483,-3.361 -0.179,-3.556c0.794,-0.509 5.728,-2.328 6.113,-2.253c0.227,0.044 0.908,0.919 1.513,1.944c0.606,1.025 2.548,3.819 4.316,6.208c5.32,7.19 7.34,10.049 10.933,15.469c1.886,2.845 3.847,5.752 4.356,6.459c0.51,0.707 0.842,1.367 0.738,1.466c-0.185,0.176 -25.526,8.501 -25.878,8.501c-0.099,0 -0.184,-3.812 -0.188,-8.472l-0,0Zm44.777,7.12c-0.07,-0.323 -0.371,-1.868 -0.67,-3.433c-0.299,-1.565 -1.226,-5.523 -2.06,-8.796c-2.81,-11.024 -5.389,-18.716 -7.417,-22.121c-0.524,-0.88 -0.836,-1.663 -0.707,-1.774c0.128,-0.109 1.31,-0.988 2.627,-1.953l2.394,-1.756l1.486,1.321c0.817,0.727 3.64,3.091 6.272,5.254c6.402,5.262 10.844,9.101 14.745,12.746c1.779,1.662 4.258,3.845 5.509,4.852c1.251,1.007 2.182,1.916 2.069,2.02c-0.202,0.186 -22.426,13.327 -23.545,13.922c-0.509,0.27 -0.591,0.237 -0.703,-0.282Zm89.583,-5.056c-1.732,-1.835 -3.432,-3.921 -3.297,-4.046c0.056,-0.052 0.989,-0.631 2.073,-1.287c2.401,-1.451 4.531,-3.343 8.918,-7.919c6.314,-6.586 9.67,-10.781 14.441,-18.05c3.471,-5.287 5.261,-8.406 7.419,-12.928c0.967,-2.028 1.91,-3.68 2.095,-3.672c0.186,0.008 6.306,3.007 13.602,6.665l13.265,6.651l-4.081,3.28c-2.245,1.804 -5.522,4.445 -7.282,5.869c-5.63,4.556 -13.661,9.937 -21.657,14.513c-3.76,2.152 -9.15,4.893 -18.473,9.395c-1.921,0.928 -3.972,1.985 -4.558,2.349l-1.066,0.662l-1.399,-1.482Zm139.441,-1.473c-5.806,-8.409 -15.88,-20.182 -25.83,-30.185c-3.891,-3.911 -6.452,-6.267 -7.704,-7.087c-1.032,-0.675 -1.876,-1.267 -1.876,-1.314c0,-0.151 4.548,-5.384 5.005,-5.759c0.384,-0.315 0.854,-0.151 3.86,1.341c1.883,0.934 6.275,2.857 9.761,4.272c8.257,3.353 15.158,6.378 22.295,9.772c7.593,3.611 11.738,5.452 14.505,6.441l2.265,0.81l-9.12,9.815c-5.016,5.398 -9.833,10.568 -10.703,11.488l-1.583,1.672l-0.875,-1.266Zm-304.083,-37.171c0.417,-2.598 0.652,-7.036 0.689,-13.024c0.022,-3.699 0.028,-6.831 0.011,-6.961c-0.017,-0.129 -2.387,2.085 -5.268,4.921c-2.882,2.837 -6.694,6.377 -8.473,7.867c-1.778,1.49 -3.857,3.273 -4.62,3.962c-0.762,0.689 -1.484,1.154 -1.603,1.035c-0.362,-0.362 -9.86,-21.084 -9.725,-21.218c0.068,-0.069 2.841,-0.404 6.161,-0.745c3.32,-0.34 7.317,-0.807 8.882,-1.036c3.533,-0.518 12.126,-2.252 14.163,-2.858c0.42,-0.125 0.453,-0.788 0.453,-9.159l0,-9.024l-3.945,0.114c-2.17,0.063 -7.676,0.168 -12.237,0.235c-4.56,0.066 -8.489,0.196 -8.73,0.289c-0.4,0.153 -0.439,-0.142 -0.436,-3.287c0.002,-1.901 0.069,-3.7 0.15,-3.999c0.144,-0.537 0.228,-0.543 6.269,-0.454c3.368,0.049 9.005,0.131 12.527,0.181l6.402,0.092l-0.011,-4.553c-0.006,-2.504 -0.158,-5.792 -0.336,-7.307l-0.323,-2.755l5.047,-0.189c5.127,-0.192 18.535,-0.063 18.779,0.181c0.073,0.074 -0.014,1.054 -0.193,2.179c-0.471,2.954 -0.471,60.893 -0,63.847c0.179,1.125 0.257,2.115 0.173,2.199c-0.085,0.085 -5.507,0.194 -12.049,0.243l-11.894,0.089l0.138,-0.865l-0.001,-0Zm107.897,-0.899c-10.968,-0.862 -15.674,-3.697 -17.623,-10.617c-0.5,-1.775 -0.807,-14.632 -0.853,-35.784c-0.026,-11.48 -0.231,-17.356 -0.697,-19.855l-0.156,-0.84l24.161,-0l-0.152,0.97c-0.715,4.553 -0.99,21.277 -0.35,21.277c0.357,0 4.996,-4.714 8.502,-8.64c1.259,-1.409 3.424,-4.286 4.813,-6.394c1.389,-2.108 2.604,-3.749 2.7,-3.647c0.954,1.013 13.921,18.583 13.857,18.776c-0.1,0.302 -2.503,1.136 -9.755,3.387c-5.358,1.664 -10.722,2.96 -17.028,4.116c-1.896,0.348 -3.468,0.672 -3.493,0.721c-0.026,0.049 0.014,3.173 0.085,6.944c0.142,7.377 0.228,7.86 1.571,8.854c1.029,0.761 2.377,0.963 6.454,0.97c8.618,0.014 11.401,-1.002 13.061,-4.766c0.91,-2.066 1.193,-3.841 1.349,-8.486c0.095,-2.796 0.244,-4.333 0.421,-4.333c0.152,0 1.747,0.486 3.545,1.079l3.27,1.08l0.168,4.029c0.248,5.989 0.203,17.874 -0.073,19.331c-0.631,3.33 -2.255,6.055 -4.714,7.91c-2.311,1.745 -5.099,2.703 -10.049,3.454c-2.62,0.397 -15.774,0.718 -19.013,0.464l-0.001,-0Zm-77.907,-6.419c0.079,-0.204 0.275,-1.805 0.437,-3.556c0.36,-3.907 0.193,-43.662 -0.191,-45.545l-0.252,-1.229l26.373,0c23.474,0 26.357,0.043 26.223,0.393c-0.568,1.479 -0.721,8.689 -0.582,27.348c0.082,10.993 0.219,20.57 0.304,21.281l0.156,1.294l-25.437,-0c-13.991,-0 -25.828,0.086 -26.305,0.193c-0.699,0.155 -0.84,0.12 -0.726,-0.179l0,-0Zm32.507,-7.387l0,-35.441l-12.158,0l-0,35.441l12.158,-0Zm98.862,-10.412c-0.862,-1.459 -1.638,-2.841 -1.725,-3.072c-0.126,-0.336 0.431,-0.666 2.767,-1.642c5.119,-2.139 12.93,-6.776 19.075,-11.326c5.204,-3.852 12.953,-10.372 12.953,-10.898c0,-1.137 -13.255,-21.099 -14.018,-21.111c-0.098,-0.002 -2.449,1.481 -5.224,3.295c-11.45,7.485 -12.972,8.476 -13.138,8.552c-0.188,0.086 -3.836,-4.349 -3.836,-4.664c-0,-0.105 1.135,-0.946 2.522,-1.868c8.436,-5.608 20.414,-21.414 28.536,-37.654c2.658,-5.316 4.236,-9.225 5.561,-13.772c0.877,-3.012 1.006,-3.284 1.507,-3.17c0.301,0.068 5.417,1.177 11.368,2.464c5.951,1.287 11.701,2.548 12.776,2.802l1.956,0.461l-1.518,1.792c-0.835,0.985 -2.656,3.114 -4.045,4.73c-1.39,1.616 -2.527,3.088 -2.527,3.271c-0,0.261 0.802,0.311 3.686,0.233c2.027,-0.055 9.74,-0.15 17.138,-0.211c7.399,-0.061 13.642,-0.185 13.874,-0.277c0.335,-0.131 0.822,0.6 2.363,3.543c5.113,9.767 10.902,17.852 17.898,24.998c3.43,3.504 7.993,7.539 9.332,8.252c0.548,0.292 0.658,0.249 1.161,-0.457c0.864,-1.214 5.501,-10.911 6.801,-14.223c1.369,-3.49 4.182,-11.794 4.542,-13.413l0.251,-1.125l-14.918,0.13c-8.205,0.072 -15.238,0.214 -15.629,0.315l-0.711,0.184l-0,-4.326c-0,-3.803 0.048,-4.308 0.401,-4.172c0.221,0.085 2.345,0.287 4.721,0.45c4.542,0.311 54.314,0.146 55.735,-0.185l0.711,-0.165l-0,5.55l-1.876,2.362c-7.13,8.981 -18.508,20.355 -30.008,29.997c-2.383,1.998 -4.333,3.704 -4.333,3.79c0,0.674 10.948,6.312 16.456,8.474c8.009,3.144 15.76,5.364 21.502,6.158c1.675,0.231 3.188,0.465 3.363,0.52c0.457,0.144 -13.543,23.403 -14.086,23.403c-0.542,-0 -7.696,-3.732 -13.154,-6.862c-11.465,-6.574 -18.133,-11.47 -25.691,-18.865c-9.573,-9.367 -15.572,-17.813 -22.789,-32.09c-1.366,-2.704 -2.596,-4.957 -2.733,-5.007c-0.137,-0.05 -1.296,1.549 -2.577,3.553c-4.811,7.529 -8.885,12.986 -13.866,18.57c-4.195,4.702 -11.76,11.892 -17.163,16.312c-0.561,0.459 -0.929,0.924 -0.818,1.035c0.255,0.255 58.324,0.267 59.98,0.011l1.229,-0.189l-0,4.281c-0,3.959 -0.034,4.27 -0.453,4.138c-2.98,-0.94 -58.902,-0.951 -63.12,-0.011c-0.579,0.128 -0.582,0.111 -0.582,-2.98c-0,-1.71 -0.099,-3.109 -0.22,-3.109c-0.121,-0 -1.096,0.628 -2.167,1.396c-11.364,8.154 -23.5,14.848 -37.193,20.513c-2.205,0.912 -4.983,2.177 -6.173,2.809c-1.19,0.633 -2.196,1.151 -2.236,1.151c-0.04,-0 -0.777,-1.193 -1.638,-2.652l-0,0.001Zm48.321,-42.895c1.145,-1.423 2.082,-2.692 2.082,-2.82c-0,-0.378 -5.347,-6.862 -10.823,-13.125l-3.211,-3.673l-2.773,2.519c-2.655,2.413 -6.404,5.618 -8.257,7.06l-0.874,0.681l1.133,0.642c0.624,0.353 2.299,1.259 3.721,2.013c1.423,0.753 4.857,2.712 7.632,4.351c7.56,4.467 8.872,5.198 9.09,5.063c0.109,-0.068 1.135,-1.288 2.28,-2.711Zm14.317,-21.131c1.552,-3.038 4.579,-9.858 4.579,-10.317c0,-0.052 -4.478,-0.096 -9.952,-0.096l-9.952,0l-2.853,3.272c-2.471,2.833 -3.128,3.713 -2.771,3.713c0.205,0 17.844,6.744 18.234,6.971c0.241,0.141 0.513,0.26 0.603,0.265c0.089,0.003 1.04,-1.71 2.112,-3.808l0,-0Zm-203.562,15.78c0.356,-2.5 0.632,-8.408 0.716,-15.269l0.085,-7.056l-19.013,0.009c-10.458,0.003 -20.789,0.083 -22.959,0.175l-3.945,0.169l-0,-7.613l22.958,0.047l22.959,0.046l-0.087,-5.14c-0.086,-5.077 -0.366,-9.928 -0.711,-12.32l-0.178,-1.228l25.495,-0l-0.163,1.487c-0.273,2.487 -0.656,9.02 -0.774,13.193l-0.112,3.945l24,0l-0.012,-6.273c-0.005,-3.484 -0.163,-7.538 -0.352,-9.119c-0.187,-1.565 -0.289,-2.904 -0.225,-2.975c0.203,-0.227 15.024,-0.321 20.208,-0.128l5.002,0.186l-0.148,1.459c-0.081,0.802 -0.221,4.921 -0.311,9.154l-0.163,7.696l46.366,0l-0,3.896c-0,3.055 -0.07,3.85 -0.324,3.686c-0.178,-0.115 -10.609,-0.267 -23.18,-0.338l-22.857,-0.13l0.139,10.607c0.076,5.833 0.245,11.159 0.374,11.835l0.236,1.228l-73.198,0l0.174,-1.229Zm48.271,-6.273l-0,-16.039l-23.8,-0l0,16.039l23.8,-0Z" style="fill-rule:nonzero;"/></g></svg>